<svg xmlns="http://www.w3.org/2000/svg" viewBox="0 0 64 64" fill="none">
  <circle cx="32" cy="32" r="24" stroke="#9AA098" stroke-width="1.8"/>
  <path d="
    M32 18.2
    C34.2 16.3 36.4 15.4 38.4 15.8
    C42.3 16.5 45 19.8 45 24.4
    C45 29 43.2 32.2 41.2 35.6
    C39.8 38 39 41 38.6 44.8
    C38.2 48.8 36.8 50 35.1 50
    C33.1 50 32.8 46.5 32 45.2
    C31.2 46.5 30.9 50 28.9 50
    C27.2 50 25.8 48.8 25.4 44.8
    C25 41 24.2 38 22.8 35.6
    C20.8 32.2 19 29 19 24.4
    C19 19.8 21.7 16.5 25.6 15.8
    C27.6 15.4 29.8 16.3 32 18.2
    Z"
    stroke="#9AA098" stroke-width="2"
    stroke-linecap="round" stroke-linejoin="round"/>
</svg>
